<svg xmlns="http://www.w3.org/2000/svg" width="1111.15" height="202.253" viewBox="0 0 1111.15 202.253"><defs><style>.a{fill:#fff;}.b{fill:#41eee0;}.c{fill:rgba(255,255,255,0);}.d{fill:#3264ee;}</style></defs><g transform="translate(-88.244 -75.351)"><g transform="translate(88.244 75.351)"><path class="a" d="M875.925,214.32v-4c-4.467,4.928-10.784,7.405-18.793,7.405q-11.555,0-18.483-7.854c-4.622-5.392-6.929-12.166-6.929-20.945q0-13.866,8.315-22.18c5.559-5.559,12.94-8.473,22.025-8.473a23.649,23.649,0,0,1,15.088,4.932l.615-3.081h14.024v52.214c0,9.395-2.926,17.1-8.473,22.8s-12.781,8.469-22.331,8.469a53.44,53.44,0,0,1-26.032-6.774l5.853-12.17c7.088,3.7,13.4,5.559,18.793,5.559C869.608,230.186,875.925,224.024,875.925,214.32Zm0-22.95V175.352a21.948,21.948,0,0,0-12.015-3.236c-9.53,0-15.712,6.623-15.712,16.792,0,9.549,5.237,16.172,13.556,16.172C870.223,205.08,875.925,199.688,875.925,191.369Z" transform="translate(-501.473 -95.427)"/><path class="a" d="M1050.638,207.244c-5.559-5.559-8.338-12.94-8.338-22.025s2.779-16.482,8.338-22.025,12.627-8.473,21.561-8.473c9.089,0,16.172,2.926,21.719,8.473s8.338,12.936,8.338,22.025-2.779,16.478-8.338,22.025-12.631,8.338-21.719,8.338C1063.265,215.582,1056.181,212.8,1050.638,207.244Zm21.561-6.317c8.473,0,14.481-6.158,14.481-15.557,0-9.855-6.008-16.018-14.481-16.018-8.624,0-14.477,6.162-14.477,16.018-.155,9.406,5.853,15.565,14.477,15.565Z" transform="translate(-628.44 -93.286)"/><path class="a" d="M1268.618,177.506l-16.018,2.307V97.72h16.018Z" transform="translate(-755.237 -58.919)"/><path class="a" d="M1384.029,119.655a27,27,0,0,1,14.171,3.7V96.55h16.018v82.1l-14.171-2.311-1.231-3.081c-4.927,4.765-11.245,7.238-19.254,7.238-7.7,0-14.016-2.617-18.789-8.009-4.622-5.388-6.933-12.627-6.933-21.561,0-9.4,2.617-16.943,8.164-22.633S1374.948,119.655,1384.029,119.655Zm2.156,13.862c-9.395,0-16.018,6.933-16.018,16.788,0,10.014,5.559,16.637,13.862,16.637,8.469,0,14.171-5.082,14.171-12.785V137.368A21.782,21.782,0,0,0,1386.185,133.517Z" transform="translate(-816.278 -58.213)"/><path class="a" d="M1595.519,154.74c9.53,0,16.788,3.391,21.719,9.859,4.928,6.623,6.774,15.247,5.7,25.877h-42.359c1.85,8.315,8.628,13.1,17.558,13.1A32.394,32.394,0,0,0,1616,198.02l4.932,10.324a45.826,45.826,0,0,1-24.336,7.238c-9.089,0-16.482-2.617-22.18-8.16-5.853-5.559-8.779-12.94-8.779-22.335,0-9.089,2.78-16.327,8.164-21.87C1579.347,157.666,1586.43,154.74,1595.519,154.74Zm-.31,13.246c-7.389,0-12.782,4.467-14.632,11.86L1608.3,180C1608.3,172.763,1602.913,167.986,1595.209,167.986Z" transform="translate(-943.98 -93.298)"/><path class="b" d="M288.984,64.555H265.16A64.63,64.63,0,0,1,329.719,0V23.824A40.779,40.779,0,0,0,288.984,64.555Z" transform="translate(-159.874)"/><path class="a" d="M1788.233,212.591,1772.35,214.9V157.6h14.016l1.39,5.853c4-5.082,9.7-7.544,16.788-7.544,6.623,0,11.86,2.16,16.018,6.317,4.006,4.157,6.162,9.7,6.162,16.482V214.9h-16V182.863c0-7.393-4.157-11.86-11.09-11.86-7.084,0-11.4,4.622-11.4,12.166Z" transform="translate(-1068.612 -94.004)"/><path class="a" d="M2013.68,119.4v13.4h-13.1v41.434l-15.883,2.307V132.8h-7.544V119.4h7.544v-1.85q0-11.781,7.854-18.479c5.237-4.467,11.706-6.778,19.563-6.778a36.79,36.79,0,0,1,15.089,3.387h11.09v78.555l-16.018,2.307v-69a28.919,28.919,0,0,0-9.089-1.541c-8.009,0-12.631,4.622-12.631,12.631v.77Z" transform="translate(-1192.093 -55.645)"/><path class="a" d="M2217.033,99.66v11.86H2201V99.66ZM2201,126l16.021-2.156V178.68l-16.021,2.3Z" transform="translate(-1327.061 -60.089)"/><path class="a" d="M2342.253,177.413l5.237,10.935a29.268,29.268,0,0,1-15.557,4.328c-12.63,0-20.024-8.009-20.024-21.87V147.07h-8.469v-13.4h8.469V116.73h15.883v16.943h15.247v13.4h-15.247v23.26c0,6.008,2.311,9.085,6.933,9.085A16.667,16.667,0,0,0,2342.253,177.413Z" transform="translate(-1388.825 -70.381)"/><path class="a" d="M2480.828,185.22c0,9.53,6.313,16.018,16.172,16.018,4.467,0,9.24-1.541,14.322-4.467l5.856,12.309a43.115,43.115,0,0,1-22.49,6.468c-8.934,0-16.172-2.617-21.715-8.16s-8.164-12.94-8.164-22.18,2.617-16.482,8.164-22.025,12.781-8.473,21.715-8.473c7.854,0,15.247,2.311,22.49,6.623l-5.856,12.309c-5.083-3.077-9.855-4.467-14.322-4.467C2487.141,169.2,2480.828,175.516,2480.828,185.22Z" transform="translate(-1486.121 -93.28)"/><path class="a" d="M2676.933,97.72v30.034a21.337,21.337,0,0,1,16.323-6.933c13.4,0,22.335,9.244,22.335,23.26v35.736h-16.018V148.084c0-7.7-4.312-12.166-11.245-12.166-7.084,0-11.4,4.467-11.4,12.166v29.423l-15.883,2.307V97.72Z" transform="translate(-1604.441 -58.919)"/><circle class="c" cx="52.643" cy="52.643" r="52.643" transform="translate(11.912 11.912)"/><path class="a" d="M64.555,129.11A64.555,64.555,0,1,1,129.11,64.555,64.626,64.626,0,0,1,64.555,129.11Zm0-105.286a40.731,40.731,0,1,0,40.731,40.731A40.731,40.731,0,0,0,64.555,23.824Z"/><circle class="a" cx="11.912" cy="11.912" r="11.912" transform="translate(157.932 52.643)"/><path class="d" d="M70.589,447.991A93.5,93.5,0,0,1,10,425.7L25.451,407.57a69.657,69.657,0,0,0,90.257,0l15.446,18.138a93.512,93.512,0,0,1-60.564,22.283Z" transform="translate(-6.03 -245.738)"/></g></g></svg>